<?xml version="1.0" encoding="UTF-8"?>
<!DOCTYPE svg PUBLIC "-//W3C//DTD SVG 1.1//EN" "http://www.w3.org/Graphics/SVG/1.1/DTD/svg11.dtd">
<svg xmlns="http://www.w3.org/2000/svg" version="1.1" width="861px" height="131px" style="shape-rendering:geometricPrecision; text-rendering:geometricPrecision; image-rendering:optimizeQuality; fill-rule:evenodd; clip-rule:evenodd" xmlns:xlink="http://www.w3.org/1999/xlink">
<g><path style="opacity:0.007" fill="#fefefe" d="M -0.5,-0.5 C 107.833,-0.5 216.167,-0.5 324.5,-0.5C 324.5,6.83333 324.5,14.1667 324.5,21.5C 390.833,21.5 457.167,21.5 523.5,21.5C 523.5,17.5 523.5,13.5 523.5,9.5C 635.833,9.5 748.167,9.5 860.5,9.5C 860.5,48.5 860.5,87.5 860.5,126.5C 754.5,126.5 648.5,126.5 542.5,126.5C 542.5,127.833 542.5,129.167 542.5,130.5C 361.5,130.5 180.5,130.5 -0.5,130.5C -0.5,86.8333 -0.5,43.1667 -0.5,-0.5 Z"/></g>
<g><path style="opacity:0.999" fill="#f77229" d="M 109.5,12.5 C 103.833,17.8333 98.1667,23.1667 92.5,28.5C 69.8333,28.5 47.1667,28.5 24.5,28.5C 24.167,48.178 24.5004,67.8446 25.5,87.5C 26.1067,87.3764 26.44,87.0431 26.5,86.5C 28.5,85.1667 30.1667,83.5 31.5,81.5C 32.4961,66.676 32.8294,51.676 32.5,36.5C 49.8662,35.8476 66.8662,36.5142 83.5,38.5C 77.8543,43.479 72.521,48.8123 67.5,54.5C 62.3504,56.4351 57.017,56.7684 51.5,55.5C 51.5,58.5 51.5,61.5 51.5,64.5C 57.979,65.4907 64.6457,65.824 71.5,65.5C 71.5,72.1667 71.5,78.8333 71.5,85.5C 65.31,85.1771 59.31,85.5104 53.5,86.5C 51.0365,88.4611 48.7032,90.6278 46.5,93C 57.495,93.4998 68.495,93.6665 79.5,93.5C 79.1709,79.3234 79.5042,65.3234 80.5,51.5C 86.4238,47.0087 91.9238,42.0087 97,36.5C 97.5,61.4978 97.6666,86.4978 97.5,111.5C 73.994,111.169 50.6607,111.502 27.5,112.5C 25.0365,114.461 22.7032,116.628 20.5,119C 48.8314,119.5 77.1647,119.667 105.5,119.5C 106.332,88.6694 106.832,57.6694 107,26.5C 108,25.5 109,24.5 110,23.5C 110.5,57.165 110.667,90.8317 110.5,124.5C 76.3292,124.832 42.3292,124.498 8.5,123.5C 13.6303,117.869 18.9637,112.369 24.5,107C 47.1642,106.5 69.8309,106.333 92.5,106.5C 93.8279,86.9959 93.8279,67.3293 92.5,47.5C 91.4777,47.8555 90.811,48.5222 90.5,49.5C 89.1667,50.8333 87.8333,52.1667 86.5,53.5C 85.5039,68.324 85.1706,83.324 85.5,98.5C 68.4665,99.1521 51.7998,98.4854 35.5,96.5C 40.2969,91.202 45.2969,86.0354 50.5,81C 55.8229,80.5006 61.1563,80.334 66.5,80.5C 66.5,77.1667 66.5,73.8333 66.5,70.5C 59.5,70.5 52.5,70.5 45.5,70.5C 45.5,63.5 45.5,56.5 45.5,49.5C 51.8421,49.6662 58.1754,49.4995 64.5,49C 66.3513,47.3163 68.018,45.4829 69.5,43.5C 66.3462,41.9741 63.0128,41.3075 59.5,41.5C 52.1667,41.5 44.8333,41.5 37.5,41.5C 37.5,55.5 37.5,69.5 37.5,83.5C 32.1667,89.1667 26.8333,94.8333 21.5,100.5C 19.5092,75.1884 18.8425,49.5217 19.5,23.5C 43.3392,23.8309 67.0059,23.4976 90.5,22.5C 92.1667,21.1667 93.8333,19.8333 95.5,18.5C 96.404,17.791 96.7373,16.791 96.5,15.5C 68.1667,15.5 39.8333,15.5 11.5,15.5C 11.5,46.8333 11.5,78.1667 11.5,109.5C 10.5,111.167 9.16667,112.5 7.5,113.5C 6.50165,79.3374 6.16832,45.0041 6.5,10.5C 41.1829,9.84009 75.5162,10.5068 109.5,12.5 Z"/></g>
<g><path style="opacity:0.726" fill="#fbc8aa" d="M 90.5,22.5 C 67.0059,23.4976 43.3392,23.8309 19.5,23.5C 24.5667,22.8118 29.7334,22.1451 35,21.5C 53.4235,22.4925 71.9235,22.8259 90.5,22.5 Z"/></g>
<g><path style="opacity:1" fill="#060401" d="M 619.5,46.5 C 619.5,65.8333 619.5,85.1667 619.5,104.5C 614.5,104.5 609.5,104.5 604.5,104.5C 604.5,93.5 604.5,82.5 604.5,71.5C 595.167,71.5 585.833,71.5 576.5,71.5C 576.5,66.5 576.5,61.5 576.5,56.5C 585.833,56.5 595.167,56.5 604.5,56.5C 604.666,51.8215 604.499,47.1548 604,42.5C 603.583,41.244 602.75,40.5774 601.5,40.5C 592.535,39.4185 583.535,39.2519 574.5,40C 573.016,40.6622 571.683,41.4955 570.5,42.5C 569.778,42.9175 569.278,43.5842 569,44.5C 568.5,64.4972 568.333,84.4972 568.5,104.5C 563.5,104.5 558.5,104.5 553.5,104.5C 553.333,83.4974 553.5,62.4974 554,41.5C 557.132,33.0344 562.966,27.201 571.5,24C 582.559,23.0941 593.559,23.4274 604.5,25C 614.478,28.7945 619.478,35.9611 619.5,46.5 Z"/></g>
<g><path style="opacity:0.357" fill="#ddc460" d="M 621.5,46.5 C 620.833,46.5 620.167,46.5 619.5,46.5C 619.478,35.9611 614.478,28.7945 604.5,25C 593.559,23.4274 582.559,23.0941 571.5,24C 562.966,27.201 557.132,33.0344 554,41.5C 553.5,62.4974 553.333,83.4974 553.5,104.5C 552.503,84.6736 552.17,64.6736 552.5,44.5C 553.381,32.9035 559.381,25.4035 570.5,22C 581.5,21.3333 592.5,21.3333 603.5,22C 615.113,26.1047 621.113,34.2714 621.5,46.5 Z"/></g>
<g><path style="opacity:0.946" fill="#f1da72" d="M 252.5,41.5 C 251.833,39.5 251.167,37.5 250.5,35.5C 246.5,35.5 242.5,35.5 238.5,35.5C 237.833,37.1667 237.167,38.8333 236.5,40.5C 236.326,38.139 235.993,35.8056 235.5,33.5C 241.509,33.3338 247.509,33.5005 253.5,34C 253.833,34.3333 254.167,34.6667 254.5,35C 253.77,37.154 253.103,39.3206 252.5,41.5 Z"/></g>
<g><path style="opacity:0.888" fill="#f6e155" d="M 295.5,34.5 C 295.795,36.7354 295.461,38.7354 294.5,40.5C 294.5,38.8333 294.5,37.1667 294.5,35.5C 290.167,35.5 285.833,35.5 281.5,35.5C 280.833,47.1667 280.167,58.8333 279.5,70.5C 279.813,58.4494 279.479,46.4494 278.5,34.5C 284.32,33.1843 289.987,33.1843 295.5,34.5 Z"/></g>
<g><path style="opacity:0.004" fill="#feff00" d="M 295.5,34.5 C 296.662,51.6618 296.829,68.9951 296,86.5C 295.802,88.3817 295.302,90.0484 294.5,91.5C 294.5,91.1667 294.5,90.8333 294.5,90.5C 294.5,73.8333 294.5,57.1667 294.5,40.5C 295.461,38.7354 295.795,36.7354 295.5,34.5 Z"/></g>
<g><path style="opacity:0.976" fill="#fcc4a5" d="M 83.5,38.5 C 66.8662,36.5142 49.8662,35.8476 32.5,36.5C 32.8294,51.676 32.4961,66.676 31.5,81.5C 31.5,66.1667 31.5,50.8333 31.5,35.5C 33.7925,35.7564 35.9592,35.4231 38,34.5C 53.7698,35.1595 69.6031,35.8262 85.5,36.5C 85.1445,37.5223 84.4778,38.189 83.5,38.5 Z"/></g>
<g><path style="opacity:1" fill="#302a11" d="M 793.5,35.5 C 812.5,35.5 831.5,35.5 850.5,35.5C 850.819,40.3633 850.486,45.03 849.5,49.5C 849.5,45.1667 849.5,40.8333 849.5,36.5C 831.167,36.5 812.833,36.5 794.5,36.5C 794.5,49.8333 794.5,63.1667 794.5,76.5C 793.504,63.0102 793.171,49.3435 793.5,35.5 Z"/></g>
<g><path style="opacity:0.999" fill="#040301" d="M 238.5,35.5 C 242.5,35.5 246.5,35.5 250.5,35.5C 250.5,49.1667 250.5,62.8333 250.5,76.5C 246.5,76.5 242.5,76.5 238.5,76.5C 238.5,62.8333 238.5,49.1667 238.5,35.5 Z"/></g>
<g><path style="opacity:0.997" fill="#030301" d="M 293.5,90.5 C 291.079,96.0892 287.079,100.256 281.5,103C 271.894,104.557 262.228,104.891 252.5,104C 244.747,101.083 240.08,95.583 238.5,87.5C 238.5,85.8333 238.5,84.1667 238.5,82.5C 242.5,82.5 246.5,82.5 250.5,82.5C 250.232,84.099 250.566,85.4324 251.5,86.5C 252.122,89.7756 254.122,91.1089 257.5,90.5C 264.687,90.8245 271.687,90.4912 278.5,89.5C 280.446,88.9653 281.446,87.632 281.5,85.5C 282.496,69.3419 282.83,53.0085 282.5,36.5C 286.167,36.5 289.833,36.5 293.5,36.5C 293.5,54.5 293.5,72.5 293.5,90.5 Z"/></g>
<g><path style="opacity:1" fill="#090703" d="M 406.5,52.5 C 406.5,69.8333 406.5,87.1667 406.5,104.5C 402.167,104.5 397.833,104.5 393.5,104.5C 393.5,101.5 393.5,98.5 393.5,95.5C 393.667,81.1628 393.5,66.8295 393,52.5C 390.521,50.0832 387.521,49.0832 384,49.5C 380.329,49.1094 377.162,50.1094 374.5,52.5C 373.503,69.6586 373.17,86.992 373.5,104.5C 369.5,104.5 365.5,104.5 361.5,104.5C 361.667,87.4967 361.5,70.4967 361,53.5C 360.617,52.944 360.117,52.6107 359.5,52.5C 358.942,51.2101 357.942,50.3768 356.5,50C 351.442,48.9896 346.609,49.4896 342,51.5C 340.575,58.3846 340.075,65.3846 340.5,72.5C 340.5,73.8333 340.5,75.1667 340.5,76.5C 336.167,76.5 331.833,76.5 327.5,76.5C 327.08,66.7529 327.58,57.0862 329,47.5C 335.149,36.8842 344.316,33.0509 356.5,36C 360.311,36.8232 363.811,38.3232 367,40.5C 377.22,34.5204 387.72,34.0204 398.5,39C 403.363,42.2303 406.03,46.7303 406.5,52.5 Z"/></g>
<g><path style="opacity:0.902" fill="#e9d06c" d="M 408.5,50.5 C 407.662,50.8417 407.328,51.5084 407.5,52.5C 407.167,52.5 406.833,52.5 406.5,52.5C 406.03,46.7303 403.363,42.2303 398.5,39C 387.72,34.0204 377.22,34.5204 367,40.5C 363.811,38.3232 360.311,36.8232 356.5,36C 344.316,33.0509 335.149,36.8842 329,47.5C 327.58,57.0862 327.08,66.7529 327.5,76.5C 331.833,76.5 336.167,76.5 340.5,76.5C 340.5,75.1667 340.5,73.8333 340.5,72.5C 341.167,74.1667 341.833,75.8333 342.5,77.5C 342.465,86.8298 342.798,96.1632 343.5,105.5C 337.202,106.496 330.868,106.83 324.5,106.5C 324.333,87.8304 324.5,69.1637 325,50.5C 329.389,38.7188 337.889,33.0522 350.5,33.5C 356.51,33.3362 362.177,34.6696 367.5,37.5C 376.417,33.1588 385.751,32.3255 395.5,35C 402.493,38.11 406.826,43.2767 408.5,50.5 Z"/></g>
<g><path style="opacity:1" fill="#010100" d="M 849.5,49.5 C 835.167,49.5 820.833,49.5 806.5,49.5C 806.5,54.1667 806.5,58.8333 806.5,63.5C 818.833,63.5 831.167,63.5 843.5,63.5C 843.5,67.8333 843.5,72.1667 843.5,76.5C 827.167,76.5 810.833,76.5 794.5,76.5C 794.5,63.1667 794.5,49.8333 794.5,36.5C 812.833,36.5 831.167,36.5 849.5,36.5C 849.5,40.8333 849.5,45.1667 849.5,49.5 Z"/></g>
<g><path style="opacity:0.004" fill="#feff00" d="M 601.5,40.5 C 603.28,44.5956 603.946,48.9289 603.5,53.5C 603.167,53.5 602.833,53.5 602.5,53.5C 602.957,49.4161 602.29,45.5828 600.5,42C 591.5,41.3333 582.5,41.3333 573.5,42C 572.219,43.4087 571.219,44.9087 570.5,46.5C 570.5,45.1667 570.5,43.8333 570.5,42.5C 571.683,41.4955 573.016,40.6622 574.5,40C 583.535,39.2519 592.535,39.4185 601.5,40.5 Z"/></g>
<g><path style="opacity:0.925" fill="#fabf9e" d="M 92.5,28.5 C 70.3396,29.4974 48.0062,29.8308 25.5,29.5C 25.1697,48.674 25.503,67.674 26.5,86.5C 26.44,87.0431 26.1067,87.3764 25.5,87.5C 24.5004,67.8446 24.167,48.178 24.5,28.5C 47.1667,28.5 69.8333,28.5 92.5,28.5 Z"/></g>
<g><path style="opacity:0.359" fill="#f7bc9b" d="M 109.5,12.5 C 75.5162,10.5068 41.1829,9.84009 6.5,10.5C 6.16832,45.0041 6.50165,79.3374 7.5,113.5C 7.44001,114.043 7.10667,114.376 6.5,114.5C 5.50012,79.5063 5.16679,44.5063 5.5,9.5C 40.5,9.5 75.5,9.5 110.5,9.5C 110.737,10.791 110.404,11.791 109.5,12.5 Z"/></g>
<g><path style="opacity:0.924" fill="#fabd9a" d="M 95.5,18.5 C 68.1868,16.5085 40.5202,15.8418 12.5,16.5C 12.8315,47.6712 12.4982,78.6712 11.5,109.5C 11.5,78.1667 11.5,46.8333 11.5,15.5C 39.8333,15.5 68.1667,15.5 96.5,15.5C 96.7373,16.791 96.404,17.791 95.5,18.5 Z"/></g>
<g><path style="opacity:0.152" fill="#312a12" d="M 281.5,35.5 C 285.833,35.5 290.167,35.5 294.5,35.5C 294.5,37.1667 294.5,38.8333 294.5,40.5C 294.5,57.1667 294.5,73.8333 294.5,90.5C 294.167,90.5 293.833,90.5 293.5,90.5C 293.5,72.5 293.5,54.5 293.5,36.5C 289.833,36.5 286.167,36.5 282.5,36.5C 282.83,53.0085 282.496,69.3419 281.5,85.5C 281.5,68.8333 281.5,52.1667 281.5,35.5 Z"/></g>
<g><path style="opacity:0.004" fill="#fdfd00" d="M 359.5,52.5 C 359.5,62.1667 359.5,71.8333 359.5,81.5C 359.822,87.358 359.489,93.0247 358.5,98.5C 358.667,83.163 358.5,67.8297 358,52.5C 353,49.8333 348,49.8333 343,52.5C 342.5,60.8267 342.334,69.16 342.5,77.5C 341.833,75.8333 341.167,74.1667 340.5,72.5C 340.075,65.3846 340.575,58.3846 342,51.5C 346.609,49.4896 351.442,48.9896 356.5,50C 357.942,50.3768 358.942,51.2101 359.5,52.5 Z"/></g>
<g><path style="opacity:0.004" fill="#feff00" d="M 393.5,95.5 C 393.167,95.5 392.833,95.5 392.5,95.5C 392.424,82.5103 392.424,69.6769 392.5,57C 392.385,55.1049 391.718,53.4382 390.5,52C 386.185,50.1053 381.852,50.1053 377.5,52C 376.874,52.7504 376.374,53.5838 376,54.5C 375.5,66.1619 375.333,77.8286 375.5,89.5C 374.505,77.3446 374.171,65.0113 374.5,52.5C 377.162,50.1094 380.329,49.1094 384,49.5C 387.521,49.0832 390.521,50.0832 393,52.5C 393.5,66.8295 393.667,81.1628 393.5,95.5 Z"/></g>
<g><path style="opacity:0.955" fill="#e7cb53" d="M 792.5,35.5 C 811.993,34.5029 831.66,34.1696 851.5,34.5C 851.5,39.8333 851.5,45.1667 851.5,50.5C 837.496,50.3334 823.496,50.5001 809.5,51C 808.544,54.3936 808.211,57.8936 808.5,61.5C 820.833,61.5 833.167,61.5 845.5,61.5C 845.617,67.3774 845.617,73.0441 845.5,78.5C 827.5,78.5 809.5,78.5 791.5,78.5C 791.5,67.5 791.5,56.5 791.5,45.5C 791.833,45.5 792.167,45.5 792.5,45.5C 792.5,56.1667 792.5,66.8333 792.5,77.5C 809.675,77.8299 826.675,77.4966 843.5,76.5C 843.5,72.1667 843.5,67.8333 843.5,63.5C 831.167,63.5 818.833,63.5 806.5,63.5C 806.5,58.8333 806.5,54.1667 806.5,49.5C 820.833,49.5 835.167,49.5 849.5,49.5C 850.486,45.03 850.819,40.3633 850.5,35.5C 831.5,35.5 812.5,35.5 793.5,35.5C 793.167,35.5 792.833,35.5 792.5,35.5 Z"/></g>
<g><path style="opacity:0.004" fill="#feff00" d="M 408.5,50.5 C 409.451,65.4644 409.785,80.4644 409.5,95.5C 408.566,94.4324 408.232,93.099 408.5,91.5C 407.64,78.4857 407.307,65.4857 407.5,52.5C 407.328,51.5084 407.662,50.8417 408.5,50.5 Z"/></g>
<g><path style="opacity:0.956" fill="#ffe993" d="M 845.5,61.5 C 833.167,61.5 820.833,61.5 808.5,61.5C 808.211,57.8936 808.544,54.3936 809.5,51C 823.496,50.5001 837.496,50.3334 851.5,50.5C 851.5,45.1667 851.5,39.8333 851.5,34.5C 831.66,34.1696 811.993,34.5029 792.5,35.5C 792.5,38.8333 792.5,42.1667 792.5,45.5C 792.167,45.5 791.833,45.5 791.5,45.5C 791.5,41.5 791.5,37.5 791.5,33.5C 812.167,33.5 832.833,33.5 853.5,33.5C 853.5,39.5 853.5,45.5 853.5,51.5C 838.921,51.1763 824.421,51.5096 810,52.5C 809.231,55.0991 809.398,57.5991 810.5,60C 822.341,60.1693 834.007,60.6693 845.5,61.5 Z"/></g>
<g><path style="opacity:0.622" fill="#f89a65" d="M 27.5,112.5 C 50.6607,111.502 73.994,111.169 97.5,111.5C 97.6666,86.4978 97.5,61.4978 97,36.5C 91.9238,42.0087 86.4238,47.0087 80.5,51.5C 85.5019,45.1571 91.1686,39.4904 97.5,34.5C 98.4998,60.4915 98.8331,86.4915 98.5,112.5C 74.8333,112.5 51.1667,112.5 27.5,112.5 Z"/></g>
<g><path style="opacity:0.877" fill="#e8ce62" d="M 155.5,21.5 C 170.167,21.5 184.833,21.5 199.5,21.5C 199.616,28.1509 199.616,34.6509 199.5,41C 185.833,41.3333 172.167,41.6667 158.5,42C 154.278,46.3467 154.611,50.0133 159.5,53C 169.542,53.1682 179.542,53.8349 189.5,55C 201.646,58.9649 207.312,67.2983 206.5,80C 206.63,93.8723 199.964,102.539 186.5,106C 170.823,106.833 155.156,106.666 139.5,105.5C 139.578,99.2394 139.245,92.906 138.5,86.5C 152.837,86.6666 167.171,86.4999 181.5,86C 187.705,84.2025 189.038,80.5359 185.5,75C 175.118,74.8703 164.784,74.2036 154.5,73C 137.396,65.6998 132.23,53.1998 139,35.5C 140.677,32.1466 142.843,29.1466 145.5,26.5C 148.925,24.7874 152.259,23.1207 155.5,21.5 Z"/></g>
<g><path style="opacity:1" fill="#050401" d="M 196.5,39.5 C 183.829,39.3334 171.162,39.5001 158.5,40C 155.063,41.506 153.73,44.1726 154.5,48C 154.667,49.8333 154.833,51.6667 155,53.5C 155.75,54.1258 156.584,54.6258 157.5,55C 167.559,55.1042 177.559,55.7709 187.5,57C 201.652,61.3196 207.152,70.8196 204,85.5C 201.833,95.6667 195.667,101.833 185.5,104C 171.171,104.5 156.837,104.667 142.5,104.5C 142.5,99.1667 142.5,93.8333 142.5,88.5C 156.344,88.829 170.01,88.4957 183.5,87.5C 186.292,87.5479 188.125,86.2146 189,83.5C 191.238,77.0727 189.072,73.2393 182.5,72C 172.427,71.9242 162.427,71.2575 152.5,70C 140.339,62.791 136.172,52.291 140,38.5C 142.681,32.2489 147.181,27.9156 153.5,25.5C 167.804,24.5692 182.137,24.2358 196.5,24.5C 196.5,29.5 196.5,34.5 196.5,39.5 Z"/></g>
<g><path style="opacity:1" fill="#393115" d="M 196.5,39.5 C 196.5,34.5 196.5,29.5 196.5,24.5C 182.137,24.2358 167.804,24.5692 153.5,25.5C 154.263,24.7321 155.263,24.2321 156.5,24C 170.163,23.5001 183.829,23.3334 197.5,23.5C 197.821,29.0262 197.488,34.3595 196.5,39.5 Z"/></g>
<g><path style="opacity:0.4" fill="#4e3d1f" d="M 406.5,52.5 C 406.833,52.5 407.167,52.5 407.5,52.5C 407.307,65.4857 407.64,78.4857 408.5,91.5C 407.833,95.8333 407.167,100.167 406.5,104.5C 406.5,87.1667 406.5,69.8333 406.5,52.5 Z"/></g>
<g><path style="opacity:0.485" fill="#fadd6d" d="M 602.5,53.5 C 602.833,53.5 603.167,53.5 603.5,53.5C 594.56,55.4722 585.227,56.1389 575.5,55.5C 575.5,56.5 575.5,57.5 575.5,58.5C 574.833,57.5 574.167,56.5 573.5,55.5C 582.775,53.5267 592.442,52.86 602.5,53.5 Z"/></g>
<g><path style="opacity:0.236" fill="#fbb282" d="M 59.5,41.5 C 52.6866,42.4912 45.6866,42.8245 38.5,42.5C 38.829,56.3435 38.4957,70.0102 37.5,83.5C 37.5,69.5 37.5,55.5 37.5,41.5C 44.8333,41.5 52.1667,41.5 59.5,41.5 Z"/></g>
<g><path style="opacity:0.72" fill="#705b29" d="M 238.5,35.5 C 238.5,49.1667 238.5,62.8333 238.5,76.5C 237.833,66.8333 237.167,57.1667 236.5,47.5C 236.5,45.1667 236.5,42.8333 236.5,40.5C 237.167,38.8333 237.833,37.1667 238.5,35.5 Z"/></g>
<g><path style="opacity:0.886" fill="#5b4f1f" d="M 601.5,40.5 C 602.75,40.5774 603.583,41.244 604,42.5C 604.499,47.1548 604.666,51.8215 604.5,56.5C 595.167,56.5 585.833,56.5 576.5,56.5C 576.5,61.5 576.5,66.5 576.5,71.5C 576.167,71.5 575.833,71.5 575.5,71.5C 575.5,67.1667 575.5,62.8333 575.5,58.5C 575.5,57.5 575.5,56.5 575.5,55.5C 585.227,56.1389 594.56,55.4722 603.5,53.5C 603.946,48.9289 603.28,44.5956 601.5,40.5 Z"/></g>
<g><path style="opacity:0.047" fill="#e9cf63" d="M 701.5,33.5 C 719.17,33.3334 736.836,33.5001 754.5,34C 761.51,36.7313 764.01,41.898 762,49.5C 750.611,62.9796 738.445,75.8129 725.5,88C 737.181,88.1675 748.848,88.6675 760.5,89.5C 761.245,95.0666 761.245,100.733 760.5,106.5C 742.497,106.667 724.497,106.5 706.5,106C 699.426,101.317 697.926,95.1501 702,87.5C 713.349,75.9849 724.516,64.3182 735.5,52.5C 724.186,51.5012 712.853,51.1678 701.5,51.5C 702.833,45.5 702.833,39.5 701.5,33.5 Z"/></g>
<g><path style="opacity:1" fill="#070502" d="M 721.5,89.5 C 720.957,89.56 720.624,89.8933 720.5,90.5C 732.815,91.499 745.149,91.8324 757.5,91.5C 757.5,95.8333 757.5,100.167 757.5,104.5C 740.83,104.667 724.163,104.5 707.5,104C 701.992,100.582 700.325,95.7484 702.5,89.5C 715.321,76.5116 727.988,63.345 740.5,50C 728.505,49.5001 716.505,49.3335 704.5,49.5C 704.5,44.8333 704.5,40.1667 704.5,35.5C 720.837,35.3334 737.17,35.5001 753.5,36C 760.546,38.7436 762.38,43.577 759,50.5C 746.751,63.5859 734.251,76.5859 721.5,89.5 Z"/></g>
<g><path style="opacity:0.176" fill="#9f8e31" d="M 281.5,35.5 C 281.5,52.1667 281.5,68.8333 281.5,85.5C 281.446,87.632 280.446,88.9653 278.5,89.5C 279.11,88.609 279.443,87.609 279.5,86.5C 279.5,81.1667 279.5,75.8333 279.5,70.5C 280.167,58.8333 280.833,47.1667 281.5,35.5 Z"/></g>
<g><path style="opacity:0.059" fill="#c8b356" d="M 650.5,21.5 C 657.5,21.5 664.5,21.5 671.5,21.5C 670.799,49.8546 670.799,78.1879 671.5,106.5C 664.5,106.5 657.5,106.5 650.5,106.5C 651.807,78.1533 651.807,49.82 650.5,21.5 Z"/></g>
<g><path style="opacity:1" fill="#050401" d="M 653.5,23.5 C 658.5,23.5 663.5,23.5 668.5,23.5C 668.5,50.5 668.5,77.5 668.5,104.5C 663.5,104.5 658.5,104.5 653.5,104.5C 653.5,77.5 653.5,50.5 653.5,23.5 Z"/></g>
<g><path style="opacity:0.249" fill="#83722b" d="M 250.5,35.5 C 251.167,37.5 251.833,39.5 252.5,41.5C 252.5,48.8333 252.5,56.1667 252.5,63.5C 251.514,67.97 251.181,72.6367 251.5,77.5C 246.968,77.8182 242.634,77.4849 238.5,76.5C 242.5,76.5 246.5,76.5 250.5,76.5C 250.5,62.8333 250.5,49.1667 250.5,35.5 Z"/></g>
<g><path style="opacity:1" fill="#fccfb6" d="M 19.5,23.5 C 18.8425,49.5217 19.5092,75.1884 21.5,100.5C 20.791,101.404 19.791,101.737 18.5,101.5C 18.1689,75.328 18.5022,49.328 19.5,23.5 Z"/></g>
<g><path style="opacity:1" fill="#f9955d" d="M 110.5,21.5 C 111.498,55.6626 111.832,89.9959 111.5,124.5C 111.167,124.5 110.833,124.5 110.5,124.5C 110.667,90.8317 110.5,57.165 110,23.5C 109,24.5 108,25.5 107,26.5C 106.832,57.6694 106.332,88.6694 105.5,119.5C 105.333,88.1649 105.5,56.8316 106,25.5C 107.371,23.9586 108.871,22.6253 110.5,21.5 Z"/></g>
<g><path style="opacity:0.291" fill="#facbb0" d="M 110.5,21.5 C 110.56,20.9569 110.893,20.6236 111.5,20.5C 112.83,55.6643 112.83,90.6643 111.5,125.5C 111.5,125.167 111.5,124.833 111.5,124.5C 111.832,89.9959 111.498,55.6626 110.5,21.5 Z"/></g>
<g><path style="opacity:0.027" fill="#e0c459" d="M 472.5,52.5 C 473.497,69.6586 473.83,86.992 473.5,104.5C 477.833,104.5 482.167,104.5 486.5,104.5C 487.491,97.6866 487.825,90.6866 487.5,83.5C 487.833,83.5 488.167,83.5 488.5,83.5C 489.143,91.1499 489.477,98.8166 489.5,106.5C 483.5,106.5 477.5,106.5 471.5,106.5C 472.176,89.1749 472.509,71.8416 472.5,54.5C 472.5,53.8333 472.5,53.1667 472.5,52.5 Z"/></g>
<g><path style="opacity:0.625" fill="#fcea46" d="M 573.5,55.5 C 574.167,56.5 574.833,57.5 575.5,58.5C 575.5,62.8333 575.5,67.1667 575.5,71.5C 584.652,72.4936 593.985,72.8269 603.5,72.5C 603.827,81.6822 603.493,90.6822 602.5,99.5C 602.5,91.5 602.5,83.5 602.5,75.5C 593.225,73.5267 583.558,72.86 573.5,73.5C 573.5,67.5 573.5,61.5 573.5,55.5 Z"/></g>
<g><path style="opacity:0.337" fill="#feedaa" d="M 573.5,73.5 C 583.558,72.86 593.225,73.5267 602.5,75.5C 592.735,74.8568 583.068,74.1902 573.5,73.5 Z"/></g>
<g><path style="opacity:0.407" fill="#f9a87a" d="M 51.5,64.5 C 58.5,64.5 65.5,64.5 72.5,64.5C 72.5,71.8333 72.5,79.1667 72.5,86.5C 66.1667,86.5 59.8333,86.5 53.5,86.5C 59.31,85.5104 65.31,85.1771 71.5,85.5C 71.5,78.8333 71.5,72.1667 71.5,65.5C 64.6457,65.824 57.979,65.4907 51.5,64.5 Z"/></g>
<g><path style="opacity:0.473" fill="#faa06f" d="M 92.5,106.5 C 92.4293,90.8431 92.4293,75.1765 92.5,59.5C 92.3333,56.5 92.1667,53.5 92,50.5C 91.6174,49.944 91.1174,49.6107 90.5,49.5C 90.811,48.5222 91.4777,47.8555 92.5,47.5C 93.8279,67.3293 93.8279,86.9959 92.5,106.5 Z"/></g>
<g><path style="opacity:1" fill="#968235" d="M 792.5,35.5 C 792.833,35.5 793.167,35.5 793.5,35.5C 793.171,49.3435 793.504,63.0102 794.5,76.5C 810.833,76.5 827.167,76.5 843.5,76.5C 826.675,77.4966 809.675,77.8299 792.5,77.5C 792.5,66.8333 792.5,56.1667 792.5,45.5C 792.5,42.1667 792.5,38.8333 792.5,35.5 Z"/></g>
<g><path style="opacity:0.999" fill="#e2cb59" d="M 236.5,47.5 C 237.167,57.1667 237.833,66.8333 238.5,76.5C 242.634,77.4849 246.968,77.8182 251.5,77.5C 251.181,72.6367 251.514,67.97 252.5,63.5C 252.965,67.9663 253.298,72.633 253.5,77.5C 247.925,78.4524 242.259,78.7857 236.5,78.5C 236.768,76.901 236.434,75.5676 235.5,74.5C 236.415,65.5404 236.748,56.5404 236.5,47.5 Z"/></g>
<g><path style="opacity:1" fill="#feeb9f" d="M 235.5,74.5 C 236.434,75.5676 236.768,76.901 236.5,78.5C 242.259,78.7857 247.925,78.4524 253.5,77.5C 254.051,80.8067 254.384,84.1401 254.5,87.5C 252.837,85.5615 252.171,83.2282 252.5,80.5C 247.167,80.5 241.833,80.5 236.5,80.5C 236.5,82.8333 236.5,85.1667 236.5,87.5C 235.515,83.3656 235.182,79.0323 235.5,74.5 Z"/></g>
<g><path style="opacity:0.176" fill="#958033" d="M 575.5,71.5 C 575.833,71.5 576.167,71.5 576.5,71.5C 585.833,71.5 595.167,71.5 604.5,71.5C 604.5,82.5 604.5,93.5 604.5,104.5C 603.833,103.167 603.167,101.833 602.5,100.5C 602.5,100.167 602.5,99.8333 602.5,99.5C 603.493,90.6822 603.827,81.6822 603.5,72.5C 593.985,72.8269 584.652,72.4936 575.5,71.5 Z"/></g>
<g><path style="opacity:0.669" fill="#feeca5" d="M 791.5,78.5 C 809.5,78.5 827.5,78.5 845.5,78.5C 833.678,79.4951 821.678,79.8284 809.5,79.5C 809.401,82.2372 809.735,84.9039 810.5,87.5C 809.883,87.3893 809.383,87.056 809,86.5C 808.505,84.5273 808.338,82.5273 808.5,80.5C 802.833,80.5 797.167,80.5 791.5,80.5C 790.494,80.0623 790.494,79.3957 791.5,78.5 Z"/></g>
<g><path style="opacity:1" fill="#a9933a" d="M 183.5,87.5 C 170.01,88.4957 156.344,88.829 142.5,88.5C 142.5,93.8333 142.5,99.1667 142.5,104.5C 141.511,99.0247 141.178,93.358 141.5,87.5C 155.5,87.5 169.5,87.5 183.5,87.5 Z"/></g>
<g><path style="opacity:0.202" fill="#95703a" d="M 619.5,46.5 C 620.167,46.5 620.833,46.5 621.5,46.5C 621.5,59.8333 621.5,73.1667 621.5,86.5C 620.833,92.5 620.167,98.5 619.5,104.5C 619.5,85.1667 619.5,65.8333 619.5,46.5 Z"/></g>
<g><path style="opacity:0.004" fill="#fbf939" d="M 279.5,86.5 C 279.443,87.609 279.11,88.609 278.5,89.5C 271.687,90.4912 264.687,90.8245 257.5,90.5C 257.167,89.8333 256.833,89.1667 256.5,88.5C 264.482,90.3032 272.149,89.6365 279.5,86.5 Z"/></g>
<g><path style="opacity:0.324" fill="#4c421a" d="M 339.5,104.5 C 339.5,97.1667 339.5,89.8333 339.5,82.5C 335.5,82.5 331.5,82.5 327.5,82.5C 327.5,89.8333 327.5,97.1667 327.5,104.5C 326.508,97.0182 326.175,89.3516 326.5,81.5C 331.167,81.5 335.833,81.5 340.5,81.5C 340.825,89.3516 340.492,97.0182 339.5,104.5 Z"/></g>
<g><path style="opacity:1" fill="#030200" d="M 339.5,104.5 C 335.5,104.5 331.5,104.5 327.5,104.5C 327.5,97.1667 327.5,89.8333 327.5,82.5C 331.5,82.5 335.5,82.5 339.5,82.5C 339.5,89.8333 339.5,97.1667 339.5,104.5 Z"/></g>
<g><path style="opacity:0.72" fill="#524a2f" d="M 359.5,52.5 C 360.117,52.6107 360.617,52.944 361,53.5C 361.5,70.4967 361.667,87.4967 361.5,104.5C 360.833,96.8333 360.167,89.1667 359.5,81.5C 359.5,71.8333 359.5,62.1667 359.5,52.5 Z"/></g>
<g><path style="opacity:0.477" fill="#ecd46c" d="M 522.5,49.5 C 522.5,50.5 522.5,51.5 522.5,52.5C 521.833,69.8333 521.167,87.1667 520.5,104.5C 520.667,86.1636 520.5,67.8303 520,49.5C 519.392,47.9336 518.558,46.6002 517.5,45.5C 510.363,36.4555 501.03,33.2889 489.5,36C 486.221,36.9728 483.221,38.4728 480.5,40.5C 470.37,34.5847 460.037,34.0847 449.5,39C 444.85,42.4862 441.85,46.9862 440.5,52.5C 439.507,60.6499 439.174,68.9832 439.5,77.5C 444.5,77.5 449.5,77.5 454.5,77.5C 454.5,73.1667 454.5,68.8333 454.5,64.5C 454.833,64.5 455.167,64.5 455.5,64.5C 456.318,78.4839 456.651,92.4839 456.5,106.5C 450.167,106.5 443.833,106.5 437.5,106.5C 437.94,92.6675 437.94,79.0008 437.5,65.5C 436.16,41.0375 447.494,30.5375 471.5,34C 474.466,35.2663 477.466,36.4329 480.5,37.5C 491.032,32.3441 501.699,32.1774 512.5,37C 514.208,39.0435 516.208,40.7101 518.5,42C 520.128,44.4172 521.461,46.9172 522.5,49.5 Z"/></g>
<g><path style="opacity:0.502" fill="#332c11" d="M 517.5,45.5 C 518.558,46.6002 519.392,47.9336 520,49.5C 520.5,67.8303 520.667,86.1636 520.5,104.5C 520.167,104.5 519.833,104.5 519.5,104.5C 519.667,86.8302 519.5,69.1635 519,51.5C 517.872,49.6547 517.372,47.6547 517.5,45.5 Z"/></g>
<g><path style="opacity:0.14" fill="#927f33" d="M 455.5,51.5 C 454.564,55.7352 454.231,60.0685 454.5,64.5C 454.5,68.8333 454.5,73.1667 454.5,77.5C 449.5,77.5 444.5,77.5 439.5,77.5C 439.174,68.9832 439.507,60.6499 440.5,52.5C 440.5,60.5 440.5,68.5 440.5,76.5C 444.833,76.5 449.167,76.5 453.5,76.5C 452.865,67.7663 453.532,59.4329 455.5,51.5 Z"/></g>
<g><path style="opacity:1" fill="#080602" d="M 517.5,45.5 C 517.372,47.6547 517.872,49.6547 519,51.5C 519.5,69.1635 519.667,86.8302 519.5,104.5C 515.5,104.5 511.5,104.5 507.5,104.5C 507.667,87.1635 507.5,69.8301 507,52.5C 506.578,50.5743 505.411,49.5743 503.5,49.5C 499.154,49.3343 494.821,49.501 490.5,50C 489.619,50.7083 488.953,51.5416 488.5,52.5C 486.514,69.4678 485.847,86.8011 486.5,104.5C 482.167,104.5 477.833,104.5 473.5,104.5C 473.83,86.992 473.497,69.6586 472.5,52.5C 471.942,51.2101 470.942,50.3768 469.5,50C 467.667,49.8333 465.833,49.6667 464,49.5C 460.85,49.3603 458.017,50.027 455.5,51.5C 453.532,59.4329 452.865,67.7663 453.5,76.5C 449.167,76.5 444.833,76.5 440.5,76.5C 440.5,68.5 440.5,60.5 440.5,52.5C 441.85,46.9862 444.85,42.4862 449.5,39C 460.037,34.0847 470.37,34.5847 480.5,40.5C 483.221,38.4728 486.221,36.9728 489.5,36C 501.03,33.2889 510.363,36.4555 517.5,45.5 Z"/></g>
<g><path style="opacity:0.094" fill="#52471d" d="M 488.5,52.5 C 487.525,62.7513 487.192,73.0846 487.5,83.5C 487.825,90.6866 487.491,97.6866 486.5,104.5C 485.847,86.8011 486.514,69.4678 488.5,52.5 Z"/></g>
<g><path style="opacity:0.264" fill="#927e32" d="M 503.5,49.5 C 505.411,49.5743 506.578,50.5743 507,52.5C 507.5,69.8301 507.667,87.1635 507.5,104.5C 506.833,87.5 506.167,70.5 505.5,53.5C 504.662,53.1583 504.328,52.4916 504.5,51.5C 504.167,50.8333 503.833,50.1667 503.5,49.5 Z"/></g>
<g><path style="opacity:0.004" fill="#fcfc00" d="M 503.5,49.5 C 503.833,50.1667 504.167,50.8333 504.5,51.5C 499.514,49.9162 494.68,50.2496 490,52.5C 488.993,55.5755 488.493,58.7421 488.5,62C 488.949,69.0837 488.949,76.2504 488.5,83.5C 488.167,83.5 487.833,83.5 487.5,83.5C 487.192,73.0846 487.525,62.7513 488.5,52.5C 488.953,51.5416 489.619,50.7083 490.5,50C 494.821,49.501 499.154,49.3343 503.5,49.5 Z"/></g>
<g><path style="opacity:0.004" fill="#fffe18" d="M 472.5,52.5 C 472.5,53.1667 472.5,53.8333 472.5,54.5C 467.401,49.7438 461.901,49.4104 456,53.5C 455.501,57.1516 455.335,60.8183 455.5,64.5C 455.167,64.5 454.833,64.5 454.5,64.5C 454.231,60.0685 454.564,55.7352 455.5,51.5C 458.017,50.027 460.85,49.3603 464,49.5C 465.833,49.6667 467.667,49.8333 469.5,50C 470.942,50.3768 471.942,51.2101 472.5,52.5 Z"/></g>
<g><path style="opacity:1" fill="#f2d561" d="M 791.5,80.5 C 797.167,80.5 802.833,80.5 808.5,80.5C 808.338,82.5273 808.505,84.5273 809,86.5C 809.383,87.056 809.883,87.3893 810.5,87.5C 824.323,88.4958 838.323,88.8291 852.5,88.5C 852.5,94.5 852.5,100.5 852.5,106.5C 836.443,106.938 820.443,106.438 804.5,105C 800.445,102.399 796.945,99.2321 794,95.5C 792.584,90.5881 791.751,85.5881 791.5,80.5 Z"/></g>
<g><path style="opacity:0.999" fill="#070502" d="M 812.5,90.5 C 824.655,91.4952 836.989,91.8286 849.5,91.5C 849.5,95.8333 849.5,100.167 849.5,104.5C 835.829,104.667 822.163,104.5 808.5,104C 798.633,99.771 793.633,92.271 793.5,81.5C 798.167,81.5 802.833,81.5 807.5,81.5C 807.337,83.8568 807.503,86.1902 808,88.5C 809.11,90.0368 810.61,90.7035 812.5,90.5 Z"/></g>
<g><path style="opacity:1" fill="#50461c" d="M 721.5,89.5 C 733.655,90.4952 745.989,90.8286 758.5,90.5C 758.819,95.3633 758.486,100.03 757.5,104.5C 757.5,100.167 757.5,95.8333 757.5,91.5C 745.149,91.8324 732.815,91.499 720.5,90.5C 720.624,89.8933 720.957,89.56 721.5,89.5 Z"/></g>
<g><path style="opacity:1" fill="#453c18" d="M 812.5,90.5 C 825.167,90.5 837.833,90.5 850.5,90.5C 850.819,95.3633 850.486,100.03 849.5,104.5C 849.5,100.167 849.5,95.8333 849.5,91.5C 836.989,91.8286 824.655,91.4952 812.5,90.5 Z"/></g>
<g><path style="opacity:0.624" fill="#53491f" d="M 570.5,42.5 C 570.5,43.8333 570.5,45.1667 570.5,46.5C 569.383,56.5614 569.383,66.5614 570.5,76.5C 569.833,85.8333 569.167,95.1667 568.5,104.5C 568.333,84.4972 568.5,64.4972 569,44.5C 569.278,43.5842 569.778,42.9175 570.5,42.5 Z"/></g>
<g><path style="opacity:0.992" fill="#f2935e" d="M 35.5,96.5 C 51.7998,98.4854 68.4665,99.1521 85.5,98.5C 77.0066,99.1664 68.3399,99.4998 59.5,99.5C 50.4733,99.4981 41.8066,98.8315 33.5,97.5C 34.1667,97.1667 34.8333,96.8333 35.5,96.5 Z"/></g>
<g><path style="opacity:0.373" fill="#f3d1be" d="M 86.5,53.5 C 86.5,69.1667 86.5,84.8333 86.5,100.5C 68.5,100.5 50.5,100.5 32.5,100.5C 32.2627,99.209 32.596,98.209 33.5,97.5C 41.8066,98.8315 50.4733,99.4981 59.5,99.5C 68.3399,99.4998 77.0066,99.1664 85.5,98.5C 85.1706,83.324 85.5039,68.324 86.5,53.5 Z"/></g>
<g><path style="opacity:1" fill="#e9cd5e" d="M 254.5,87.5 C 255.167,87.8333 255.833,88.1667 256.5,88.5C 256.833,89.1667 257.167,89.8333 257.5,90.5C 254.122,91.1089 252.122,89.7756 251.5,86.5C 251.5,84.8333 251.5,83.1667 251.5,81.5C 246.833,81.5 242.167,81.5 237.5,81.5C 237.205,83.7354 237.539,85.7354 238.5,87.5C 240.08,95.583 244.747,101.083 252.5,104C 262.228,104.891 271.894,104.557 281.5,103C 287.079,100.256 291.079,96.0892 293.5,90.5C 293.833,90.5 294.167,90.5 294.5,90.5C 294.5,90.8333 294.5,91.1667 294.5,91.5C 293.185,98.3184 289.185,102.818 282.5,105C 272.574,106.59 262.574,106.923 252.5,106C 243.334,103.01 238.001,96.8435 236.5,87.5C 236.5,85.1667 236.5,82.8333 236.5,80.5C 241.833,80.5 247.167,80.5 252.5,80.5C 252.171,83.2282 252.837,85.5615 254.5,87.5 Z"/></g>
<g><path style="opacity:1" fill="#54491d" d="M 251.5,86.5 C 250.566,85.4324 250.232,84.099 250.5,82.5C 246.5,82.5 242.5,82.5 238.5,82.5C 238.5,84.1667 238.5,85.8333 238.5,87.5C 237.539,85.7354 237.205,83.7354 237.5,81.5C 242.167,81.5 246.833,81.5 251.5,81.5C 251.5,83.1667 251.5,84.8333 251.5,86.5 Z"/></g>
<g><path style="opacity:1" fill="#c0a742" d="M 440.5,81.5 C 440.175,89.3516 440.508,97.0182 441.5,104.5C 445.167,104.5 448.833,104.5 452.5,104.5C 453.492,97.0182 453.825,89.3516 453.5,81.5C 454.492,89.3159 454.826,97.3159 454.5,105.5C 449.5,105.5 444.5,105.5 439.5,105.5C 439.174,97.3159 439.508,89.3159 440.5,81.5 Z"/></g>
<g><path style="opacity:1" fill="#2d2811" d="M 440.5,81.5 C 444.833,81.5 449.167,81.5 453.5,81.5C 453.825,89.3516 453.492,97.0182 452.5,104.5C 452.5,97.1667 452.5,89.8333 452.5,82.5C 448.833,82.5 445.167,82.5 441.5,82.5C 441.5,89.8333 441.5,97.1667 441.5,104.5C 440.508,97.0182 440.175,89.3516 440.5,81.5 Z"/></g>
<g><path style="opacity:1" fill="#000000" d="M 452.5,104.5 C 448.833,104.5 445.167,104.5 441.5,104.5C 441.5,97.1667 441.5,89.8333 441.5,82.5C 445.167,82.5 448.833,82.5 452.5,82.5C 452.5,89.8333 452.5,97.1667 452.5,104.5 Z"/></g>
<g><path style="opacity:0.463" fill="#ccb753" d="M 374.5,52.5 C 374.171,65.0113 374.505,77.3446 375.5,89.5C 375.313,95.2124 375.646,100.879 376.5,106.5C 370.5,106.5 364.5,106.5 358.5,106.5C 357.37,103.803 357.37,101.137 358.5,98.5C 359.489,93.0247 359.822,87.358 359.5,81.5C 360.167,89.1667 360.833,96.8333 361.5,104.5C 365.5,104.5 369.5,104.5 373.5,104.5C 373.17,86.992 373.503,69.6586 374.5,52.5 Z"/></g>
<g><path style="opacity:0.971" fill="#eed45f" d="M 408.5,91.5 C 408.232,93.099 408.566,94.4324 409.5,95.5C 409.5,99.1667 409.5,102.833 409.5,106.5C 403.463,106.829 397.463,106.496 391.5,105.5C 392.417,102.242 392.751,98.909 392.5,95.5C 392.833,95.5 393.167,95.5 393.5,95.5C 393.5,98.5 393.5,101.5 393.5,104.5C 397.833,104.5 402.167,104.5 406.5,104.5C 407.167,100.167 407.833,95.8333 408.5,91.5 Z"/></g>
<g><path style="opacity:0.962" fill="#fbeb4e" d="M 522.5,52.5 C 522.18,70.2137 522.514,87.8804 523.5,105.5C 517.202,106.496 510.868,106.83 504.5,106.5C 505.43,88.8568 505.763,71.1902 505.5,53.5C 506.167,70.5 506.833,87.5 507.5,104.5C 511.5,104.5 515.5,104.5 519.5,104.5C 519.833,104.5 520.167,104.5 520.5,104.5C 521.167,87.1667 521.833,69.8333 522.5,52.5 Z"/></g>
<g><path style="opacity:0.995" fill="#f3e05d" d="M 552.5,44.5 C 552.17,64.6736 552.503,84.6736 553.5,104.5C 558.5,104.5 563.5,104.5 568.5,104.5C 569.167,95.1667 569.833,85.8333 570.5,76.5C 570.909,85.5421 571.576,94.5421 572.5,103.5C 572.167,104.167 571.833,104.833 571.5,105.5C 564.5,106.833 557.5,106.833 550.5,105.5C 551.156,85.0391 551.822,64.7057 552.5,44.5 Z"/></g>
<g><path style="opacity:0.995" fill="#f3db72" d="M 621.5,86.5 C 622.276,93.1373 622.609,99.8039 622.5,106.5C 615.468,106.83 608.468,106.497 601.5,105.5C 602.309,103.929 602.643,102.262 602.5,100.5C 603.167,101.833 603.833,103.167 604.5,104.5C 609.5,104.5 614.5,104.5 619.5,104.5C 620.167,98.5 620.833,92.5 621.5,86.5 Z"/></g>
<g><path style="opacity:0.976" fill="#f9b064" d="M 8.5,123.5 C 42.3292,124.498 76.3292,124.832 110.5,124.5C 110.833,124.5 111.167,124.5 111.5,124.5C 111.5,124.833 111.5,125.167 111.5,125.5C 76.8269,125.833 42.1603,125.5 7.5,124.5C 7.62358,123.893 7.95691,123.56 8.5,123.5 Z"/></g>
</svg>
